<svg xmlns="http://www.w3.org/2000/svg" xmlns:serif="http://www.serif.com/" fill-rule="evenodd" stroke-linejoin="round" stroke-miterlimit="1.414" clip-rule="evenodd" viewBox="0 0 376 376"><path fill="none" d="M0 0h375.467v375.467H0z"/><clipPath id="a"><path d="M0 0h375.467v375.467H0z" serif:id="Artboard1"/></clipPath><g fill="#00f" fill-rule="nonzero" clip-path="url(#a)"><path d="M188.785 149.171a8.559 8.559 0 0 1 .281-8.695l51.397-80.743h-47.736L125.528 179.2h42.001a8.541 8.541 0 0 1 7.091 3.789 8.54 8.54 0 0 1 .794 8.004l-36.07 87.014L245.985 153.6H196.27a8.561 8.561 0 0 1-7.485-4.429z"/><path d="M187.733 0C84.216 0 0 84.216 0 187.733c0 103.509 84.216 187.734 187.733 187.734 103.518 0 187.734-84.224 187.734-187.734C375.466 84.216 291.25 0 187.733 0zm83.277 150.613l-153.6 179.199a8.511 8.511 0 0 1-6.486 2.987 8.54 8.54 0 0 1-7.876-11.801l51.704-124.732h-43.819a8.54 8.54 0 0 1-7.364-4.232 8.498 8.498 0 0 1-.068-8.49l76.8-136.533a8.537 8.537 0 0 1 7.432-4.344h68.268a8.548 8.548 0 0 1 7.483 4.421 8.559 8.559 0 0 1-.281 8.695l-51.388 80.751h52.719a8.515 8.515 0 0 1 7.748 4.967 8.513 8.513 0 0 1-1.272 9.112z"/></g></svg>