<svg xmlns="http://www.w3.org/2000/svg" width="30" height="28"><path d="M7.172 28c-1.609 0-3-1.094-3.391-2.656l-1.578-6.266A7.668 7.668 0 0 1 2 17.391c0-.359 0-.703-.078-1.047L.109 8.891A3.483 3.483 0 0 1 0 8c0-1.937 1.469-3.531 3.391-3.734A3.707 3.707 0 0 1 7.063 1.25a3.745 3.745 0 0 1 3.641 2.875l1.297 5.437 1.609-6.687A3.743 3.743 0 0 1 17.251 0c1.859 0 3.391 1.344 3.687 3.156 1.922.219 3.313 1.844 3.313 3.766 0 .297-.047.609-.109.922l-1.922 8C23.47 14.906 24.376 14 26.017 14c2.172 0 3.984 1.766 3.984 3.953 0 1.313-.641 2.531-1.672 3.313l-7.922 5.938a3.995 3.995 0 0 1-2.391.797H7.172zM17.25 2c-.797 0-1.5.562-1.687 1.344L13.001 14h-1.984L8.751 4.594A1.752 1.752 0 0 0 7.064 3.25c-1 0-1.75.797-1.75 1.766a2 2 0 0 0 .047.438l2.063 8.547h-.406L5.471 7.626c-.187-.766-.891-1.375-1.703-1.375a1.76 1.76 0 0 0-1.719 2.156l1.813 7.469c.219.906.063 1.813.297 2.719l1.563 6.266a1.503 1.503 0 0 0 1.453 1.141h10.844c.422 0 .844-.141 1.188-.406l7.922-5.922c.531-.406.875-1.047.875-1.719 0-1.094-.906-1.953-1.984-1.953-.438 0-.859.141-1.203.406l-4.797 3.594v-3.547c0-.125 2.016-8.406 2.172-9.078.031-.141.063-.297.063-.453 0-.969-.734-1.797-1.734-1.797-.812 0-1.516.562-1.703 1.344l-1.813 7.531h-.406l2.344-9.75c.031-.141.047-.297.047-.438 0-.984-.719-1.813-1.734-1.813z"/></svg>