<svg xmlns="http://www.w3.org/2000/svg" width="24" height="24"><path d="M17 1H7C3.7 1 1 3.7 1 7v10c0 3.3 2.7 6 6 6h10c3.3 0 6-2.7 6-6V7c0-3.3-2.7-6-6-6zm4 16c0 2.2-1.8 4-4 4H7c-2.2 0-4-1.8-4-4V7c0-2.2 1.8-4 4-4h10c2.2 0 4 1.8 4 4v10z"/><path d="M12.8 7c-.5-.1-1-.1-1.5 0-2.7.4-4.6 3-4.2 5.7.2 1.3.9 2.5 2 3.3.9.6 1.9 1 3 1 .2 0 .5 0 .7-.1 1.3-.2 2.5-.9 3.3-2s1.1-2.4.9-3.7C16.7 9 15 7.3 12.8 7zm1.7 6.7c-.5.6-1.2 1.1-2 1.2-1.6.2-3.2-.9-3.4-2.5-.3-1.6.9-3.2 2.5-3.4h.8c1.3.2 2.3 1.2 2.5 2.5.2.8 0 1.6-.4 2.2zM16.8 5.8c-.2.2-.3.4-.3.7s.1.5.3.7c.2.2.5.3.7.3.3 0 .5-.1.7-.3s.3-.5.3-.7c0-.3-.1-.5-.3-.7-.4-.4-1-.4-1.4 0z"/></svg>