<?xml version="1.0" standalone="no"?>
<!DOCTYPE svg PUBLIC "-//W3C//DTD SVG 20010904//EN"
 "http://www.w3.org/TR/2001/REC-SVG-20010904/DTD/svg10.dtd">
<svg version="1.0" xmlns="http://www.w3.org/2000/svg"
 width="260.000000pt" height="260.000000pt" viewBox="0 0 260.000000 260.000000"
 preserveAspectRatio="xMidYMid meet">
<metadata>
Created by potrace 1.11, written by Peter Selinger 2001-2013
</metadata>
<g transform="translate(0.000000,260.000000) scale(0.100000,-0.100000)"
fill="#000000" stroke="none">
<path d="M0 1300 l0 -1300 1300 0 1300 0 0 600 0 600 -665 0 -665 0 0 -510 c0
-368 -3 -516 -12 -535 -13 -28 -39 -38 -89 -33 l-34 3 -3 959 c-1 700 1 962 9
972 15 19 379 20 397 2 16 -16 15 -70 -2 -94 -13 -17 -29 -19 -140 -22 l-126
-4 0 -314 0 -314 665 0 665 0 0 645 0 645 -1300 0 -1300 0 0 -1300z m485 1201
c51 -23 90 -71 105 -131 7 -30 10 -162 8 -390 l-3 -345 -33 -3 c-19 -2 -44 4
-58 13 l-24 15 0 346 0 346 -29 29 c-25 24 -38 29 -80 29 -114 0 -126 -25
-118 -238 9 -248 50 -453 158 -791 118 -365 162 -577 181 -874 9 -136 9 -190
0 -233 -23 -113 -94 -164 -228 -164 -124 1 -199 47 -224 140 -6 24 -9 170 -8
392 l3 353 38 3 c26 2 45 -2 58 -14 18 -16 19 -36 19 -360 l0 -343 24 -28 c22
-25 30 -28 91 -28 61 0 69 3 91 28 21 25 24 38 24 115 0 190 -33 437 -86 647
-14 55 -55 190 -90 300 -125 383 -173 644 -174 928 0 125 11 170 53 215 64 69
199 88 302 43z m264 -945 c8 -9 29 -207 57 -523 40 -460 51 -567 53 -508 3 96
84 1005 92 1023 8 20 15 23 57 20 l47 -3 0 -715 0 -715 -23 -3 c-52 -8 -52 -7
-53 377 -1 213 -4 342 -9 321 -5 -19 -21 -179 -36 -355 -15 -176 -32 -326 -37
-332 -12 -17 -72 -17 -85 0 -6 7 -25 170 -42 362 -18 193 -34 352 -36 354 -2
2 -4 -156 -4 -351 0 -383 0 -384 -52 -376 l-23 3 -3 718 -2 717 44 0 c26 0 48
-6 55 -14z"/>
</g>
</svg>
